<?xml version="1.0" encoding="UTF-8"?> <svg xmlns="http://www.w3.org/2000/svg" viewBox="0 0 169.081 193.236"><title>Discord-Logo</title><g id="Layer_2" data-name="Layer 2"><g id="Layer_1-2" data-name="Layer 1"><path d="M67.053,81.062c-5.507,0-9.855,4.831-9.855,10.725s4.444,10.725,9.855,10.725c5.507,0,9.855-4.831,9.855-10.725C77.005,85.893,72.56,81.062,67.053,81.062Zm35.265,0c-5.507,0-9.855,4.831-9.855,10.725s4.445,10.725,9.855,10.725c5.508,0,9.855-4.831,9.855-10.725S107.826,81.062,102.318,81.062Z" fill="#112c4c"></path><path d="M149.275,0H19.807A19.855,19.855,0,0,0,0,19.9V150.531a19.855,19.855,0,0,0,19.807,19.9H129.371l-5.12-17.874,12.367,11.5,11.691,10.821,20.772,18.358V19.9A19.854,19.854,0,0,0,149.275,0ZM111.98,126.183s-3.478-4.155-6.377-7.826c12.657-3.575,17.488-11.5,17.488-11.5a55.256,55.256,0,0,1-11.111,5.7,63.535,63.535,0,0,1-14.009,4.154,67.657,67.657,0,0,1-25.024-.1,81.084,81.084,0,0,1-14.2-4.155,56.408,56.408,0,0,1-7.053-3.285c-.29-.193-.58-.29-.87-.483a1.308,1.308,0,0,1-.386-.29c-1.74-.966-2.706-1.642-2.706-1.642s4.638,7.729,16.908,11.4c-2.9,3.671-6.473,8.019-6.473,8.019C36.811,125.507,28.7,111.5,28.7,111.5c0-31.111,13.913-56.328,13.913-56.328C56.521,44.734,69.758,45.024,69.758,45.024l.966,1.159C53.333,51.208,45.314,58.84,45.314,58.84s2.125-1.159,5.7-2.8a72.562,72.562,0,0,1,21.933-6.087,9.562,9.562,0,0,1,1.642-.193,81.747,81.747,0,0,1,19.517-.193,78.763,78.763,0,0,1,29.082,9.275s-7.633-7.246-24.058-12.27l1.353-1.546s13.236-.29,27.149,10.145c0,0,13.913,25.217,13.913,56.328C141.545,111.5,133.333,125.507,111.98,126.183Z" fill="#112c4c"></path></g></g></svg> 