<svg xmlns="http://www.w3.org/2000/svg" width="400" height="116.406" viewBox="0 0 400 116.406"><g fill-rule="evenodd"><path d="M156.111 29.804c-.259.05-.279.482-.238 5.25l.044 5.196 8.457.043 8.458.043.042 20.457.043 20.457h11.5l.042-20.458.042-20.459h8.398c7.505 0 8.409-.028 8.5-.263.281-.732.105-10.1-.191-10.173-.338-.083-44.675-.174-45.097-.093m106.722.332c-7.998.492-7.333.272-7.333 2.422 0 2.24-.129 2.109 2.076 2.109 3.263 0 3.413.164 3.713 4.083.161 2.103.161 35.237 0 36.25-.236 1.486-1.001 1.954-3.293 2.014-2.335.062-2.163-.098-2.163 2.005v1.814H277.5v-3.625l-.521-.104c-.286-.057-.96-.104-1.496-.104-2.492 0-2.809-.572-2.937-5.307l-.07-2.557.718-.61a34.95 34.95 0 0 0 1.221-1.088c1.305-1.245.972-1.435 4.045 2.312 1.845 2.251 2.806 3.404 3.192 3.833 1.688 1.875 1.26 3.277-1.066 3.495l-1.253.117v3.638h21.511l-.047-1.875-.047-1.875-.921-.099c-1.428-.153-2.265-.786-4.059-3.067a138.857 138.857 0 0 0-1.329-1.667l-.889-1.083a33.66 33.66 0 0 1-.916-1.176c-.24-.326-.591-.776-.779-1-.189-.224-.645-.783-1.015-1.241-.369-.458-.827-1.021-1.016-1.25-.19-.229-.722-.904-1.184-1.5a92.614 92.614 0 0 0-1.318-1.667c-.263-.321-.963-1.183-1.556-1.916a60.493 60.493 0 0 0-1.434-1.726c-.351-.385-.352-.397-.037-.617.176-.124.912-.721 1.636-1.327 6.583-5.514 7.312-5.914 10.769-5.914h1.631V48h-20.666v3.833h1.303c4.592 0 4.776 1.913.53 5.494a69.341 69.341 0 0 0-1.75 1.517c-.275.255-.838.762-1.25 1.127l-2.274 2.013c-.839.742-1.57 1.349-1.625 1.349-.056 0-.101-7.575-.101-16.833V29.667l-1.375.022c-.756.013-4.488.214-8.292.447m55.917 16.812c-1.219.158-3.202.606-3.583.81-.229.122-.797.341-1.261.485-1.463.456-5.906 3.549-5.906 4.112 0 .091-.225.356-.5.587-.275.232-.5.523-.5.648a.482.482 0 0 1-.21.36c-1.12.712-3.29 6.252-3.29 8.402 0 .265-.075.481-.167.481-.214 0-.222 3.214-.009 3.905.087.282.279 1.187.427 2.012.235 1.305 1.539 4.802 1.896 5.083.058.046.304.39.546.764 1.8 2.778 5.138 5.292 8.057 6.067.458.122.909.278 1.001.349 1.327 1.008 12.148 1.012 13.495.005.094-.071.658-.3 1.254-.509.596-.21 1.196-.476 1.333-.592.138-.115.488-.331.779-.478 1.448-.733 4.151-3.511 4.969-5.107.165-.32.349-.62.41-.665.187-.141.842-1.497.842-1.744 0-.128.118-.351.263-.495.498-.498.21-.813-1.264-1.384a62.309 62.309 0 0 1-1.749-.697c-.381-.171-.576.015-1.118 1.07-.189.366-.392.704-.451.75-.06.045-.348.458-.642.916-4.602 7.19-15.381 5.984-17.136-1.916-.152-.688-.337-1.4-.411-1.584-.073-.183-.179-1.027-.235-1.875l-.102-1.541h23.345v-2.084c0-1.145-.064-2.083-.143-2.083-.078 0-.189-.449-.247-.998-.119-1.142-.711-3.52-.91-3.659-.073-.051-.271-.468-.439-.926-.168-.459-.483-1.072-.7-1.364-.217-.292-.395-.592-.396-.667 0-.075-.336-.511-.745-.969-.409-.459-.746-.873-.748-.922-.007-.136-2.451-2.161-2.613-2.165-.078-.001-.472-.227-.876-.5-.404-.274-1.023-.575-1.375-.67-.353-.095-.641-.233-.641-.306 0-.162-1.843-.618-3.422-.846-1.099-.159-5.75-.2-6.828-.06m48.833.161c-1.634.345-2.583.618-2.583.742 0 .082-.094.151-.208.154-.285.007-1.632.685-2.042 1.027-1.712 1.43-2.146 1.826-2.737 2.497-.374.425-.681.836-.683.913-.001.078-.189.318-.416.534l-.414.392V48l-1.292-.003c-2.144-.005-14.264.354-14.666.434-.362.073-.375.142-.375 1.881v1.806l1.125.107c.618.058 1.445.106 1.836.107 1.763.003 2.245.817 2.468 4.168.156 2.353.274 17.169.139 17.481-.064.148-.147.6-.183 1.004-.139 1.518-.842 1.925-3.593 2.079-1.883.106-1.792.003-1.792 2.029v1.74h21.666v-1.754c0-2.05-.027-2.079-1.924-2.079-1.427 0-2.25-.345-2.665-1.117-.4-.745-.504-15.046-.11-15.178.11-.036.199-.287.199-.557 0-4.105 5.37-7.728 8.776-5.921 2.433 1.29 2.784 3.128 2.697 14.14-.069 8.697-.046 8.633-3.129 8.633-1.744 0-1.677-.081-1.677 2.018v1.815h21.5v-1.754c0-2.082.011-2.071-2.219-2.092-3.37-.031-3.186.602-3.249-11.154-.03-5.706-.115-9.647-.208-9.741-.087-.087-.157-.353-.157-.59 0-2.828-3.508-7.502-5.63-7.502-.097 0-.204-.084-.238-.186-.186-.559-6.388-1.091-8.216-.705m-43.687 3.906c.996.276 2.48 1.836 2.84 2.985.158.504.376 1.097.484 1.317.122.248.197 1.276.197 2.719 0 3.144.512 2.917-6.638 2.944l-5.138.02.071-1.292c.205-3.759 1.971-7.548 3.787-8.124.184-.059.334-.174.334-.257 0-.43 2.85-.649 4.063-.312m-98.063 2.552c-.321.21-.921.568-1.333.796-.412.228-.75.51-.75.625 0 .376 3.081 1.927 3.415 1.719.158-.099.902-.493 1.652-.876 1.593-.811 1.598-.781-.317-1.894-1.49-.866-1.834-.914-2.667-.37m4.25 4.121c-2.415 1.335-2.25 1.153-2.25 2.473 0 1.488-.01 1.486 1.931.398 2.298-1.289 2.259-1.245 2.201-2.536-.06-1.342-.059-1.342-1.882-.335m.834 4.615-1.5.85c-1.555.879-1.584.918-1.584 2.134 0 1.278-.049 1.278 2.133.008 2.044-1.19 2.034-1.178 2.034-2.321 0-1.095-.161-1.195-1.083-.671m-1.018 5.415c-2.139 1.22-2.066 1.132-2.066 2.469 0 1.29.045 1.322 1.052.749.384-.219 1.073-.606 1.532-.86 1.446-.802 1.583-.991 1.583-2.188 0-1.322-.069-1.328-2.101-.17" fill="#f3ab1b"/><path d="M225.333 36.421c-.137.027-.925.137-1.75.245-2.075.269-4.147.777-5.5 1.346-8.131 3.426-13.657 10.201-14.739 18.071-.178 1.298-.311 1.783-.695 2.536-.427.837-.425 2.272.003 2.817.182.232.399.923.506 1.61.103.662.269 1.541.368 1.954.1.412.239 1.012.31 1.333 1.017 4.617 4.704 9.793 9.286 13.04 3.001 2.126 5.771 3.228 9.784 3.893.82.135 1.795.324 2.167.418.372.095.851.214 1.063.266.212.051 1.074-.06 1.916-.248a61.864 61.864 0 0 1 2.698-.534c2.544-.421 4.147-.942 6.426-2.089 5.392-2.713 10.149-8.24 11.778-13.681.757-2.53.879-3.035.879-3.626 0-.339.155-1.075.344-1.637.42-1.245.399-3.156-.046-4.345-.164-.437-.298-1.133-.298-1.547 0-.415-.112-1.023-.25-1.352-.137-.329-.252-.758-.255-.953-.003-.195-.157-.767-.341-1.271a46.994 46.994 0 0 1-.438-1.236c-1.017-3.18-4.665-7.926-7.931-10.319-2.801-2.052-4.806-2.983-8.659-4.021-1.755-.473-5.634-.865-6.626-.67m4.554 7.809c1.483.86 3.071 1.773 3.53 2.029.458.255 2.1 1.202 3.648 2.103 1.549.901 2.861 1.64 2.917 1.644.056.003.273.148.482.323l.381.317-.008 7.967c-.008 7.335-.032 7.988-.298 8.242-.159.152-2.427 1.494-5.039 2.984-6.343 3.617-6.151 3.393-3.047 3.559 11.075.591 9.257 2.24-2.786 2.527-14.886.355-22.072-1.792-8.453-2.526 1.171-.063 2.163-.169 2.204-.235.146-.235-1.501-1.296-5.085-3.275-1.883-1.041-5.033-2.876-5.262-3.066-.401-.333-.349-16.009.054-16.354.16-.138 1.904-1.176 3.875-2.308 1.971-1.131 4.896-2.824 6.5-3.762 3.552-2.077 3.118-2.065 6.387-.169m-7.304 3.11a688.355 688.355 0 0 1-5.218 2.997c-1.699.952-1.669.997 2.029 3.062 1.485.829 1.611.803 4.643-.967 2.991-1.746 2.612-1.751 5.787.068 2.664 1.526 3.103 1.671 3.843 1.274.229-.123.754-.398 1.166-.612a22.015 22.015 0 0 0 1.42-.817c.368-.236.813-.509.99-.607.82-.457.837-.444-5.745-4.21-2.43-1.39-4.53-2.522-4.667-2.515-.136.007-2.048 1.054-4.248 2.327m7.748 1.52c2.776 1.588 5.077 2.924 5.318 3.088.298.202-2.231 1.719-2.868 1.719-.205 0-.535-.114-.733-.252-.626-.439-4.627-2.698-4.969-2.807-.378-.119-.376-.12-3.523 1.696-2.752 1.589-2.553 1.556-4.147.681-1.727-.948-1.793-.855 2.174-3.071.836-.467 2.32-1.326 3.834-2.22 1.513-.893 1.174-.973 4.914 1.166m-15.42 4.521c-.053.209-.073 2.99-.045 6.181l.051 5.801.448.36c1.082.87 3.849 2.444 4.297 2.444.334 0 .338-.079.338-6.403v-6.403l-.542-.331c-2.714-1.653-4.393-2.263-4.547-1.649m21.256.636c-2.773 1.45-2.512.613-2.461 7.879.052 7.383-.234 6.879 2.854 5.019 2.542-1.533 2.294-.653 2.236-7.915-.054-6.987.218-6.471-2.629-4.983m-18.021.676c1.674.939 1.521.224 1.521 7.083 0 3.331-.044 6.057-.098 6.057-.202 0-2.313-1.243-2.602-1.532-.278-.279-.3-.737-.3-6.218 0-6.735-.123-6.29 1.479-5.39m18.884 5.431c.01 4.595-.035 5.931-.204 6.135-.296.356-2.525 1.574-2.692 1.471-.074-.046-.134-2.777-.134-6.069v-5.987l.375-.244c.875-.571 2.224-1.247 2.425-1.215.173.028.219 1.227.23 5.909M201.889 58.5c0 .688.03.969.066.625a7.247 7.247 0 0 0 0-1.25c-.036-.344-.066-.062-.066.625m0 3.167c0 .687.03.968.066.625a7.247 7.247 0 0 0 0-1.25c-.036-.344-.066-.063-.066.625" fill="#70a6d5"/><path d="M150.581 55.583c0 13.934.02 19.609.044 12.612.024-6.997.024-18.397 0-25.333-.024-6.937-.044-1.212-.044 12.721M223.5 44.399c-1.604.938-4.529 2.631-6.5 3.762-1.971 1.132-3.715 2.17-3.875 2.308-.403.345-.455 16.021-.054 16.354.229.19 3.379 2.025 5.262 3.066 3.584 1.979 5.231 3.04 5.085 3.275-.041.066-1.033.172-2.204.235-13.619.734-6.433 2.881 8.453 2.526 12.043-.287 13.861-1.936 2.786-2.527-3.104-.166-3.296.058 3.047-3.559 2.612-1.49 4.88-2.832 5.039-2.984.266-.254.29-.907.298-8.242l.008-7.967-.381-.317c-.209-.175-.426-.32-.482-.323-.056-.004-1.368-.743-2.917-1.644a367.111 367.111 0 0 0-3.648-2.103 393.585 393.585 0 0 1-3.53-2.029c-3.269-1.896-2.835-1.908-6.387.169m7.998 3.129c6.582 3.766 6.565 3.753 5.745 4.21a24.66 24.66 0 0 0-.99.607c-.368.235-1.007.603-1.42.817-.412.214-.937.489-1.166.612-.74.397-1.179.252-3.843-1.274-3.175-1.819-2.796-1.814-5.787-.068-3.032 1.77-3.158 1.796-4.643.967-3.698-2.065-3.728-2.11-2.029-3.062.67-.375 3.018-1.724 5.218-2.997s4.112-2.32 4.248-2.327c.137-.007 2.237 1.125 4.667 2.515m-2.664 5.984c2.651 1.535 2.655 1.546.673 2.556a33.83 33.83 0 0 0-1.689.918c-.825.503-1.075.451-3.084-.637-2.423-1.313-2.423-1.334.044-2.735 2.355-1.339 1.936-1.329 4.056-.102m-11.575.338c.912.468 1.901.999 2.199 1.18l.542.331v6.403c0 6.324-.004 6.403-.338 6.403-.448 0-3.215-1.574-4.297-2.444l-.448-.36-.051-5.801c-.066-7.559-.268-7.076 2.393-5.712M238.796 59c.058 7.262.306 6.382-2.236 7.915-3.088 1.86-2.802 2.364-2.854-5.019-.051-7.266-.312-6.429 2.461-7.879 2.847-1.488 2.575-2.004 2.629 4.983m-6.664-2.525c.156.099.202.546.167 1.622l-.049 1.486-2.137 1.222c-2.639 1.509-2.639 1.509-2.577-.572l.047-1.605 2.084-1.142c2.29-1.255 2.162-1.203 2.465-1.011M224 57.57l1.917 1.062.047 1.601c.058 1.931.093 1.917-1.938.825-2.547-1.369-2.526-1.344-2.526-2.955 0-1.982-.083-1.964 2.5-.533m8.333 5.249c0 1.609.014 1.593-2.394 2.934-2.438 1.358-2.466 1.352-2.404-.535l.048-1.454 1.242-.731c3.469-2.044 3.508-2.046 3.508-.214m-9.618-.799c.922.465 2.625 1.483 2.993 1.789.421.35.434 2.858.015 2.858-.301 0-3.456-1.707-3.931-2.127-.227-.201-.292-.525-.292-1.455 0-1.59.063-1.645 1.215-1.065m9.355 4.248c.405.155.381 2.913-.028 3.262-.595.505-3.861 2.303-4.185 2.303-.396 0-.467-.376-.385-2.048.063-1.279-.028-1.185 2.445-2.53.641-.349 1.314-.736 1.495-.861.383-.265.325-.254.658-.126m-9.1.747c3.214 1.764 3.03 1.566 3.03 3.261 0 1.718.067 1.71-2.362.298-2.223-1.292-2.132-1.179-2.135-2.671-.004-1.635.048-1.667 1.467-.888" fill="#20232d"/><path d="M224.333 36.101c-.596.132-1.608.32-2.25.417-.641.097-1.429.218-1.75.268-.321.05-.731.194-.912.319-.181.126-.432.228-.558.228-.566 0-4.355 1.892-5.668 2.83-.58.414-1.227.867-1.437 1.005-.602.397-2.147 1.862-3.185 3.022-1.819 2.031-3.347 4.58-4.48 7.477-.162.412-.361.88-.443 1.039-.083.159-.15.475-.15.702 0 .227-.15.795-.334 1.261-.196.497-.293 1.015-.234 1.251.066.263-.022.602-.253.977-.784 1.268-.769 5.211.024 6.283.225.305.312.613.255.91-.047.247.055.851.228 1.342.173.491.314 1.046.314 1.233 0 .187.067.47.15.629.082.159.276.627.431 1.039.527 1.406 1.997 4.301 2.535 4.994.109.141.547.725.972 1.298 1.612 2.17 4.091 4.368 6.699 5.936 1.314.791 4.115 2.104 4.502 2.111.162.003.44.115.618.25s.515.246.75.247c.234.002.726.111 1.093.243a5.172 5.172 0 0 0 1.417.248c.444.005.972.144 1.295.341.779.474 4.239.489 5.17.022.34-.171 1.095-.352 1.679-.403.583-.05 1.142-.173 1.242-.273.099-.099.451-.18.782-.18s.747-.11.925-.245c.178-.135.462-.247.631-.25.169-.003.507-.107.75-.232a183.45 183.45 0 0 1 1.938-.959 27.315 27.315 0 0 0 2.728-1.564c.677-.459 1.403-.948 1.613-1.089.74-.493 3.282-3.09 4.075-4.161.723-.978 2.672-4.076 2.672-4.249 0-.038.213-.542.475-1.119.261-.577.603-1.499.76-2.049.157-.55.366-1.225.463-1.5.098-.275.228-.913.289-1.417.118-.984.438-1.732.676-1.585.413.255.168-5.233-.253-5.688-.316-.34-.41-.624-.41-1.232 0-.434-.112-1.005-.249-1.267-.137-.263-.25-.625-.25-.805-.011-3.312-6.078-11.678-10.002-13.791a21.15 21.15 0 0 1-1.083-.651c-1.241-.796-5.203-2.481-5.835-2.481-.169 0-.538-.07-.82-.156-2.265-.69-5.857-.962-7.595-.576m4.75.491c2.74.36 4.824.923 7.098 1.918 5.353 2.342 10.807 8.04 12.368 12.921.056.175.253.732.438 1.236.184.504.338 1.076.341 1.271.003.195.118.624.255.953.138.329.25.937.25 1.352 0 .414.134 1.11.298 1.547.445 1.189.466 3.1.046 4.345-.189.562-.344 1.298-.344 1.637 0 .591-.122 1.096-.879 3.626-1.629 5.441-6.386 10.968-11.778 13.681-2.279 1.147-3.882 1.668-6.426 2.089-.642.106-1.856.347-2.698.534-.842.188-1.704.299-1.916.248-.212-.052-.691-.171-1.063-.266a35.573 35.573 0 0 0-2.167-.418c-4.013-.665-6.783-1.767-9.784-3.893-4.582-3.247-8.269-8.423-9.286-13.04-.071-.321-.21-.921-.31-1.333a31.003 31.003 0 0 1-.368-1.954c-.107-.687-.324-1.378-.506-1.61-.428-.545-.43-1.98-.003-2.817.384-.753.517-1.238.695-2.536 1.082-7.87 6.608-14.645 14.739-18.071 1.353-.569 3.425-1.077 5.5-1.346a62.678 62.678 0 0 0 1.75-.245c.647-.127 1.92-.069 3.75.171m-3.666 11.102a215.632 215.632 0 0 1-3.834 2.22c-3.967 2.216-3.901 2.123-2.174 3.071 1.594.875 1.395.908 4.147-.681 3.147-1.816 3.145-1.815 3.523-1.696.342.109 4.343 2.368 4.969 2.807.198.138.528.252.733.252.637 0 3.166-1.517 2.868-1.719-1.103-.749-8.591-4.948-8.818-4.945-.136.002-.773.313-1.414.691m-8.75 12.389c0 5.481.022 5.939.3 6.218.289.289 2.4 1.532 2.602 1.532.054 0 .098-2.726.098-6.057 0-6.859.153-6.144-1.521-7.083-1.602-.9-1.479-1.345-1.479 5.39m19-5.401c-.505.277-1.086.613-1.292.748l-.375.244v5.987c0 3.292.06 6.023.134 6.069.167.103 2.396-1.115 2.692-1.471.317-.382.292-11.993-.026-12.044-.119-.019-.629.191-1.133.467" fill="#9bbee2"/><path d="M167.875 29.792c6.027.024 15.89.024 21.917 0 6.027-.025 1.095-.044-10.959-.044s-16.985.019-10.958.044m56.903 23.822c-2.467 1.401-2.467 1.422-.044 2.735 2.009 1.088 2.259 1.14 3.084.637a33.83 33.83 0 0 1 1.689-.918c1.982-1.01 1.978-1.021-.673-2.556-2.12-1.227-1.701-1.237-4.056.102m3.722.323c1.915 1.113 1.91 1.083.317 1.894-.75.383-1.494.777-1.652.876-.334.208-3.415-1.343-3.415-1.719 0-.115.338-.397.75-.625a25.712 25.712 0 0 0 1.333-.796c.833-.544 1.177-.496 2.667.37m1.167 3.549-2.084 1.142-.047 1.605c-.062 2.081-.062 2.081 2.577.572l2.137-1.222.049-1.486c.045-1.39-.056-1.77-.466-1.756-.046.002-1.02.517-2.166 1.145m-8.056-.875c-.061.061-.111.732-.111 1.492 0 1.611-.021 1.586 2.526 2.955 2.031 1.092 1.996 1.106 1.938-.825l-.047-1.601L224 57.57c-1.916-1.061-2.18-1.167-2.389-.959m10.354 1.412c.058 1.291.097 1.247-2.201 2.536-1.941 1.088-1.931 1.09-1.931-.398 0-1.32-.165-1.138 2.25-2.473 1.823-1.007 1.822-1.007 1.882.335m-1.008 3.803c-.49.261-1.45.805-2.132 1.207l-1.242.731-.048 1.454c-.062 1.887-.034 1.893 2.404.535 2.408-1.341 2.394-1.325 2.394-2.934 0-1.56-.133-1.656-1.376-.993m-9.346-.048c-.061.061-.111.649-.111 1.307 0 1.423-.057 1.357 2.264 2.647 2.243 1.247 2.236 1.248 2.236-.373 0-1.476.035-1.424-1.583-2.389-1.924-1.147-2.575-1.423-2.806-1.192M232 62.974c0 1.143.01 1.131-2.034 2.321-2.182 1.27-2.133 1.27-2.133-.008 0-1.216.029-1.255 1.584-2.134l1.5-.85c.922-.524 1.083-.424 1.083.671m-.588 3.42c-.181.125-.854.512-1.495.861-2.473 1.345-2.382 1.251-2.445 2.53-.082 1.672-.011 2.048.385 2.048.324 0 3.59-1.798 4.185-2.303.409-.349.433-3.107.028-3.262-.333-.128-.275-.139-.658.126m-9.801.217c-.153.153-.136 2.426.021 2.671.173.274 3.828 2.385 4.127 2.385.191 0 .241-.289.241-1.391 0-1.546-.007-1.558-1.338-2.316-2.545-1.451-2.825-1.575-3.051-1.349M232 67.888c0 1.197-.137 1.386-1.583 2.188-.459.254-1.148.641-1.532.86-1.007.573-1.052.541-1.052-.749 0-1.337-.073-1.249 2.066-2.469 2.032-1.158 2.101-1.152 2.101.17m155.499 11.161.082 1.868.049-1.736c.027-.954-.01-1.795-.082-1.867-.072-.073-.094.708-.049 1.735" fill="#b46621"/><path d="M7.542 29.784c-.57.11-.553-.803-.504 26.133l.045 25.333 5.792.044 5.792.044V65.667h10.008l.156.41c.086.225.29.545.454.71.164.166.396.487.515.715.619 1.186.78 1.433 1.06 1.632.169.12.307.322.307.449s.131.329.292.449c.268.2 1.208 1.526 1.208 1.704 0 .042.225.323.5.624s.5.643.5.76a.21.21 0 0 0 .208.213c.115 0 .391.357.614.792.223.435.485.868.583.96.307.291.928 1.227.928 1.4 0 .091.102.225.226.298.124.074.433.465.687.871.253.405.59.875.747 1.044.158.169.392.513.522.763.129.251.441.681.692.956.252.275.458.594.459.71 0 .166 1.415.201 6.792.167l6.792-.044.056-.402c.034-.241-.049-.461-.208-.55-.146-.081-.265-.215-.265-.298 0-.082-.188-.352-.417-.599-.229-.247-.416-.547-.416-.666s-.148-.319-.328-.446c-.18-.126-.428-.422-.55-.657-.214-.413-.624-.982-1.414-1.964-.206-.256-.375-.549-.375-.65 0-.102-.075-.185-.166-.185-.091 0-.324-.337-.518-.75-.194-.412-.457-.75-.584-.75-.128 0-.232-.095-.232-.213 0-.117-.206-.444-.458-.727-.543-.61-.781-.956-1.157-1.685-.154-.298-.334-.541-.4-.541s-.318-.338-.56-.75c-.241-.413-.505-.75-.586-.75-.134 0-.349-.348-.902-1.457-.103-.206-.24-.375-.305-.375-.065-.001-.316-.339-.557-.752-.242-.412-.508-.75-.591-.75-.083 0-.151-.106-.151-.236s-.057-.261-.128-.291C41.271 64.617 40.32 63 40.644 63c.187 0 .399-.103.473-.228.073-.126.439-.383.812-.572 1.13-.571 4.099-3.297 4.41-4.048.105-.254.295-.501.421-.549.126-.049.341-.354.476-.679.136-.325.316-.591.4-.591.083 0 .281-.356.438-.791.326-.906.633-1.587.769-1.709.102-.091.563-2.18.824-3.739.214-1.27.213-3.565-.001-4.751a231.42 231.42 0 0 1-.324-1.843c-.218-1.269-.374-1.902-.492-2-.114-.095-.466-.991-.704-1.79-.088-.297-.307-.618-.487-.714-.179-.096-.326-.273-.326-.394s-.168-.406-.375-.634a6.731 6.731 0 0 1-.698-.983c-.178-.313-.74-.957-1.25-1.431a142.49 142.49 0 0 1-1.343-1.265c-.229-.221-.745-.582-1.147-.803-.401-.222-.918-.571-1.149-.778-.231-.206-.511-.375-.622-.375-.111 0-.474-.184-.807-.41-.332-.225-1.224-.578-1.981-.782-.758-.205-1.415-.417-1.461-.471-.632-.742-25.719-1.51-28.958-.886m132.271-.007c-.177.048-.306.335-.375.838-.136.992-.134 49.27.002 50.093l.104.625H150.5V29.875l-.521-.104c-.574-.115-9.733-.109-10.166.006m83.417 5.857c.08.129 1.27.065 1.27-.069 0-.036-.304-.065-.677-.065-.372 0-.639.06-.593.134m5.437-.07c0 .137 1.019.206 1.1.075.047-.077-.181-.139-.507-.139s-.593.029-.593.064m-6.584.269c-.131.213.421.213.75 0 .196-.126.153-.162-.198-.164-.247-.001-.495.073-.552.164m8.167 0c.057.092.342.162.635.155.448-.01.479-.034.198-.155-.465-.2-.957-.2-.833 0m-10.083.334c-.138.089-.419.162-.625.164-.207.001-.375.077-.375.169 0 .262.999.196 1.102-.073a.256.256 0 0 1 .328-.149c.13.05.236.008.236-.094 0-.226-.33-.235-.666-.017m12.699.185c.042.127.322.255.622.285.371.036.509-.007.431-.133-.063-.103-.24-.166-.392-.141a.845.845 0 0 1-.507-.099c-.161-.1-.207-.074-.154.088m-15.491.685c-.206.099-.375.242-.375.317 0 .146.467.017.765-.212.1-.076.244-.084.319-.016.075.068.082.03.016-.084-.141-.246-.226-.246-.725-.005M235 37c0 .092.169.166.375.164.303-.002.327-.033.125-.164-.323-.209-.5-.209-.5 0m1.083.369c.184.106.433.291.554.412.265.263.53.285.53.044 0-.097-.26-.284-.578-.417-.688-.287-.974-.309-.506-.039m-20.038.268c-.728.379-.694.596.038.246.321-.153.584-.339.584-.414 0-.165.036-.174-.622.168m21.373.365c.056.091.202.165.324.165s.267.117.322.26c.055.144.181.211.28.149.116-.071.072-.184-.123-.316-.444-.299-.924-.453-.803-.258m-23.495.851c-.92.69-.95.76-.139.313.385-.212.739-.486.786-.609.108-.281.138-.294-.647.296M240.5 40c.229.179.492.326.583.326.092 0-.02-.147-.25-.326-.229-.179-.491-.326-.583-.326-.092 0 .021.147.25.326m-208.26.875c.117.16.375.292.573.292.575 0 2.261.749 2.862 1.271 1.034.898 1.992 1.996 1.992 2.282 0 .117.088.301.195.409.671.671.241 5.284-.544 5.834-.175.122-.318.322-.318.443 0 .245-1.536 1.61-2.022 1.797-.171.066-.311.19-.311.276 0 .235-2.107.855-3.292.969-.573.055-1.042.164-1.042.243 0 .078-2.625.142-5.833.142h-5.833V40.468l6.68.058c6.13.053 6.698.081 6.893.349m178.635.102c-.298.255-.542.518-.542.583 0 .066.164-.033.365-.22.201-.187.455-.34.566-.34.11 0 .244-.113.296-.25.141-.367-.074-.296-.685.227m32.292 1.079c0 .082 1.198 1.302 1.662 1.694.581.49.232-.033-.639-.958-.637-.677-1.023-.955-1.023-.736m-34.736 1.358c-.329.319-.595.675-.593.791.003.117.087.072.186-.099.1-.172.416-.526.704-.787.287-.262.472-.478.411-.481-.061-.002-.379.257-.708.576m-139.848.402c-.183.074-.883.185-1.556.245-.71.064-1.323.212-1.463.352-.133.132-.52.288-.861.345-.775.131-1.703.539-1.703.75 0 .087-.103.159-.229.159-.308 0-2.055.778-2.129.948-.081.187-1.429 1.052-1.638 1.052-.094 0-.171.104-.171.23 0 .127-.168.344-.375.481-.403.268-1.958 1.773-1.958 1.895 0 .11-.707 1.076-1.042 1.424-.16.167-.291.426-.291.576 0 .149-.188.446-.417.658-.229.213-.417.502-.417.644 0 .142-.059.258-.132.258-.14 0-.701 1.674-.701 2.09 0 .134-.066.244-.147.244-.654 0-1.31 7.824-.859 10.25.387 2.08.755 3.583.878 3.583.071 0 .128.183.128.407 0 .224.067.448.148.498.082.051.198.299.26.552.161.667.487 1.376.633 1.376.069 0 .126.096.126.213 0 .117.15.342.333.499.183.157.335.38.338.495.003.116.228.429.5.696.272.267.495.578.495.689 0 .112.188.326.417.476.229.15.417.371.417.491s.186.318.414.44c.227.122.453.341.502.486.049.146.406.486.794.757.389.27.766.589.84.708.073.119.225.217.337.217.113 0 .435.206.716.458.582.522 1.346.925 2.313 1.22.367.112.708.267.759.345.103.157 2.538.81 3.023.81.172 0 .351.102.399.227.256.666 8.784.682 9.318.018.092-.115.393-.248.668-.295 1.208-.207 2.629-.639 2.858-.867.137-.137.379-.249.539-.249.159 0 .435-.11.613-.245s.457-.247.62-.25c.164-.003.342-.121.396-.262.054-.142.393-.408.753-.591.36-.184.696-.443.747-.577.051-.133.185-.242.297-.242.237 0 2.256-2.002 2.269-2.25.005-.092.193-.263.417-.38.224-.118.408-.313.408-.434 0-.122.18-.415.401-.653.22-.238.489-.699.596-1.025.107-.325.292-.591.41-.591.192 0 .386-.612.709-2.236.175-.884.005-.913-5.428-.918-5.266-.005-6.004.063-6.272.577-.404.778-1.33 1.456-2.409 1.765-2.184.625-6.993.233-8.016-.653-1.98-1.715-2.461-2.19-2.65-2.619-.456-1.033-.67-1.677-.672-2.024-.002-.196-.115-.4-.253-.453a.41.41 0 0 1-.25-.35c0-.225 1.492-.259 13.125-.297l13.125-.042.053-.542c.028-.298.122-.542.208-.542.09 0 .156-1.025.156-2.416 0-1.35-.067-2.417-.152-2.417-.084 0-.183-.469-.22-1.042-.062-.963-.739-3.767-.955-3.958-.128-.113-1.006-2.298-1.006-2.503 0-.09-.15-.314-.334-.497-.183-.183-.333-.433-.333-.555 0-.122-.184-.321-.409-.441-.225-.12-.53-.473-.677-.783-.147-.31-.413-.655-.591-.766-.178-.111-.324-.278-.324-.37-.001-.093-.259-.344-.574-.558-.315-.215-.692-.571-.836-.792-.145-.221-.356-.402-.47-.402-.113 0-.428-.206-.7-.458-.494-.458-1.834-1.193-2.193-1.203-.105-.003-.234-.118-.286-.255-.053-.138-.244-.25-.425-.25s-.375-.075-.432-.167c-.056-.092-.27-.167-.474-.167-.205 0-.669-.152-1.032-.337-1.148-.588-7.955-1.103-8.994-.68m40.542.294c-.435.041-.792.134-.792.206 0 .072-.431.224-.958.339-.527.114-1.089.276-1.248.36a1.517 1.517 0 0 1-.588.152c-.164 0-.427.15-.584.333-.157.183-.431.333-.61.333s-.372.075-.428.167c-.057.092-.235.167-.397.167-.161 0-.456.187-.656.416-.199.23-.494.417-.655.417-.279 0-1.134.699-2.65 2.165-.38.368-.774.668-.875.668-.101 0-.184.105-.184.233s-.206.457-.458.732c-.565.617-.825.996-1.051 1.535-.096.23-.309.529-.474.667-.164.137-.474.7-.689 1.25-.215.55-.436 1.038-.491 1.083-.188.155-1.004 3.144-1.004 3.674 0 .205-.106.456-.237.558-.462.361-.451 6.775.012 7.068.102.064.224.417.273.784.129.979.443 2.291.626 2.622.088.16.16.403.16.542s.062.252.139.252c.077 0 .28.413.451.917.172.504.371.917.444.917.073 0 .132.15.132.333 0 .183.101.333.225.333s.366.314.539.698c.174.384.672 1.071 1.109 1.526.437.456.794.85.794.877 0 .108.796.899.905.899.064 0 .306.225.537.5.232.275.529.5.661.5.133 0 .283.11.334.243.051.134.424.437.828.674.404.237.735.485.735.552 0 .117 1.488.73 2.333.962.23.063.46.182.514.264.151.234 2.749.805 3.664.805.609 0 .822.063.822.243 0 .314 2.671.35 2.869.039.096-.15.127-.148.129.01.003.268.62.273.709.006.038-.115.565-.255 1.222-.326.635-.068 1.342-.16 1.571-.205 1.946-.383 2.334-.485 2.334-.61 0-.079.318-.235.708-.347.39-.113.856-.303 1.037-.424.596-.397.87-.272.985.448l.107.666h5.318c2.924 0 5.436-.045 5.581-.101.381-.146.406-35.946.026-36.327-.197-.197-1.171-.238-5.566-.238-5.891 0-5.53-.072-5.53 1.097 0 .661-.112.688-.956.236-.342-.183-.746-.333-.898-.333a.43.43 0 0 1-.373-.25c-.052-.138-.233-.25-.401-.25s-.376-.067-.463-.148c-.087-.081-.641-.229-1.23-.33-.59-.101-1.123-.265-1.184-.365-.118-.19-5.693-.356-7.203-.214m98.083.567c-.412.505-.46.656-.208.656.092 0 .167-.108.167-.241s.122-.31.271-.394c.15-.084.243-.226.209-.316-.035-.09-.232.042-.439.295m-.937 1.263-.313.429.438-.287c.24-.158.437-.353.437-.435 0-.269-.246-.142-.562.293m40.729.686c0 .092.112.26.25.374.139.116.25.134.25.041 0-.092-.113-.26-.25-.374-.139-.116-.25-.134-.25-.041m-41.461.541c-.115.183-.148.333-.074.333.174 0 .535-.36.535-.533 0-.246-.251-.137-.461.2m41.961.224c0 .06.15.259.333.442.184.184.334.27.334.193 0-.078-.15-.277-.334-.443-.183-.166-.333-.252-.333-.192m-42.488.511c-.264.318-.185.475.138.275.123-.076.193-.23.156-.343-.049-.145-.133-.125-.294.068m-.674 1.256c-.185.361-.28.691-.212.731.068.041.293-.255.5-.657.207-.403.302-.732.212-.732-.091 0-.316.296-.5.658m44.334.518c-.008.373.419.915.552.7.059-.096-.04-.351-.219-.567-.242-.29-.329-.325-.333-.133m.84 2.032c-.006.252.063.459.155.459.091 0 .166.15.166.333 0 .183.075.333.167.333.222 0 .198-.128-.167-.916-.29-.627-.309-.64-.321-.209m-46.334.361c-.124.15-.176.322-.116.382.156.156.489-.215.409-.455-.046-.138-.136-.115-.293.073M73.917 53.376c.366.106.726.29.8.408A.5.5 0 0 0 75.1 54c.38 0 1.289.51 1.539.865.122.173.354.443.516.6.161.157.473.735.693 1.285.221.55.488 1.075.594 1.167.106.091.222.448.258.791l.066.625h-7.711c-6.786 0-7.7-.03-7.615-.25.052-.137.163-.25.244-.25.082 0 .149-.14.149-.312 0-.367.618-1.828.925-2.188 1.05-1.228 1.892-1.908 2.784-2.245.435-.165.791-.356.791-.425 0-.497 4.125-.709 5.584-.287m40.944.283c.031.088.618.242 1.306.343 1.349.197 2.121.442 2.47.783.121.118.316.215.432.215.283 0 1.339.914 2.514 2.177.444.477.375 11.432-.075 11.851-.188.175-.341.389-.341.476 0 .087-.319.359-.709.604-.389.245-.799.573-.91.729-.111.156-.429.378-.708.494-.279.115-.507.28-.507.366 0 .086-.083.104-.185.041a.223.223 0 0 0-.304.079c-.425.686-7.511.703-7.511.017 0-.078-.281-.233-.625-.344-.343-.112-.85-.445-1.125-.739-.275-.295-.627-.581-.782-.635-.155-.054-.417-.308-.582-.565a7.244 7.244 0 0 0-.597-.795c-.163-.18-.382-.63-.487-1-.104-.37-.293-.758-.42-.863-.815-.675-.772-7.306.052-7.776.128-.074.233-.225.233-.336 0-.41.726-1.551 1.436-2.256.402-.398.731-.761.731-.806 0-.141.741-.708.932-.713.101-.004.349-.149.551-.325.346-.3 1.114-.529 2.558-.762.344-.055.625-.172.625-.26 0-.208 1.956-.208 2.028 0m87.713.189c-.061.1-.028.265.074.367.136.136.185.088.185-.182 0-.402-.086-.464-.259-.185m47.593-.025c0 .087.075.204.166.26.092.057.173.343.18.635.007.293.052.434.1.315.125-.311-.098-1.366-.287-1.366a.158.158 0 0 0-.159.156m.435 2.01c.06.321.174.655.253.742.197.216.187 6.88-.011 7.002-.086.053-.145.241-.132.418.019.251.074.28.25.134.379-.314.223-7.903-.174-8.462l-.296-.417.11.583m-48.486.156c-.292.494-.394 1.433-.139 1.275.17-.105.603-1.573.496-1.68-.041-.041-.201.142-.357.405m-.276 7.178c-.003.229.145.641.327.916.31.468.331.476.332.12.001-.209-.118-.426-.263-.481-.17-.066-.2-.141-.083-.213.124-.077.104-.213-.064-.435-.237-.313-.245-.31-.249.093m48.683 1.791c-.03.708-.043.753-.304 1.014-.234.234-.135.599.119.442.201-.125.375-1.11.282-1.601-.059-.313-.079-.283-.097.145m-48.023.865c0 .189.075.344.167.344.091 0 .166-.108.166-.24 0-.133-.075-.287-.166-.344-.092-.056-.167.052-.167.24m47.382 1.538c.056.161-.004.317-.143.37-.131.051-.239.263-.238.472 0 .337.04.316.344-.184.267-.438.299-.605.142-.75-.154-.141-.179-.119-.105.092m-46.835.531c.091.273.453.326.453.066 0-.13-.115-.236-.255-.236s-.229.077-.198.17m.467.941c.008.329.787 1.979.805 1.706.008-.115-.054-.34-.137-.5a20.754 20.754 0 0 1-.413-.872c-.144-.321-.259-.471-.255-.334m45.442.767c-.055.054-.059.204-.01.333.049.128.007.234-.095.234-.101 0-.184.075-.184.166 0 .318.28.165.473-.258.255-.559.156-.815-.184-.475m-44.346 1.733c.305.517.62.692.45.25-.052-.137-.163-.25-.244-.25-.082 0-.149-.112-.149-.25 0-.137-.08-.25-.176-.25-.098 0-.044.224.119.5m43.763-.306a.76.76 0 0 0-.206.459c0 .218.036.216.269-.017.148-.148.241-.355.206-.459-.045-.137-.12-.132-.269.017m-.687 1.237c-.509.647-.435.859.085.242.24-.286.399-.558.352-.605-.047-.047-.244.116-.437.363m-.86 1.444c-.195.207-.469.6-.609.875-.291.571-.168.461.601-.541.583-.76.587-.948.008-.334m-39.868 1.056c-.139.14.516 1.024.855 1.154.186.071.161-.011-.086-.284a4.271 4.271 0 0 1-.505-.68c-.086-.163-.205-.249-.264-.19m1.469 1.932c.834.903 1.289 1.311 1.37 1.229.079-.079-1.618-1.758-1.776-1.758-.046 0 .137.238.406.529m35.24.804c-.991.997-1.158 1.279-.407.689.217-.171.361-.346.318-.389-.043-.042.091-.17.297-.282.363-.198 1.071-1.018.88-1.018-.052 0-.542.45-1.088 1m-33.655.792c.007.068.288.35.625.625l.613.5-.5-.613c-.476-.584-.764-.784-.738-.512m30.895 1.444c-.178.13-.267.293-.198.361.068.069.124.033.124-.079s.067-.163.148-.113c.081.05.241-.02.354-.157.261-.315-.003-.322-.428-.012m-.907.681c-.225.271-.171.305.236.149.145-.056.264-.169.264-.25 0-.231-.27-.176-.5.101m-26.792.198c.161.042.292.138.292.213 0 .075.112.18.25.232.321.123.317.031-.012-.298-.144-.144-.388-.253-.542-.243-.249.018-.247.028.012.096m1.292.861c0 .172.505.408.621.291.041-.04-.082-.157-.273-.259-.192-.103-.348-.117-.348-.032m22.917.392c-.275.097-.619.278-.763.404-.145.125-.372.228-.505.228s-.389.102-.57.226c-.181.125-.603.277-.938.338-.6.11-1.048.603-.547.603.137 0 .293-.113.346-.25.052-.138.224-.25.381-.25.465 0 1.846-.518 1.846-.693 0-.088.061-.122.136-.076.075.046.431-.097.792-.318.696-.428.638-.498-.178-.212m-22.084.031c0 .109 1.69.958 2.039 1.025.272.052.291.022.116-.188-.114-.138-.309-.213-.431-.165-.123.047-.224 0-.224-.104s-.047-.142-.105-.084c-.058.059-.294-.041-.523-.222-.369-.291-.872-.441-.872-.262m2.942 1.251c.196.088.407.24.468.338.161.262.424.218.424-.071 0-.138-.094-.251-.209-.253a4.288 4.288 0 0 1-.625-.088c-.384-.079-.388-.073-.058.074m2.475.85c.057.092.291.167.52.167.235 0 .372-.073.313-.167-.056-.092-.29-.167-.519-.167-.236 0-.372.073-.314.167m10.833 0c-.058.094.079.167.314.167.229 0 .463-.075.52-.167.058-.094-.079-.167-.314-.167-.229 0-.463.075-.52.167m-9.178.186c-.05.081-.031.153.043.16.075.007.285.058.469.114.512.156 6.916.238 6.917.088 0-.072-1.332-.107-2.961-.077-2.279.042-3.123-.001-3.668-.189-.39-.134-.75-.178-.8-.096" fill="#fcfcfc"/><path d="M226.294 35.785c.207.039.507.038.666-.004.16-.042-.01-.074-.377-.072-.366.002-.497.036-.289.076m-2.153.13c-.202.202-2.14.353-2.327.182-.143-.132-.165-.124-.079.028.081.142-.014.208-.299.208-.229 0-.463.075-.519.167-.057.092-.436.167-.844.167-.407 0-.74.072-.74.16 0 .088-.318.25-.708.361-.39.111-.78.264-.867.34-.087.076-.326.139-.531.139-.206 0-.419.073-.474.162-.055.089-.547.367-1.093.618-.547.251-.993.515-.993.588 0 .072-.078.132-.172.132-.223 0-2.397 1.431-2.665 1.753-.112.136-.276.247-.364.247-.377 0-2.924 2.613-4.143 4.25-.477.641-.914 1.204-.971 1.25-.056.045-.47.795-.919 1.666-.45.871-.896 1.685-.993 1.809a1.266 1.266 0 0 0-.215.493c-.021.147-.156.552-.299.9-.561 1.365-.741 1.907-.845 2.54-.06.362-.211.805-.337.984-.161.23-.18.416-.064.632.116.217.09.449-.092.799-.37.716-.31 1.012.086.427.222-.328.309-.659.252-.962-.048-.262.057-.822.244-1.297.182-.461.33-1.023.33-1.25 0-.227.067-.543.15-.702.082-.159.281-.627.443-1.039 1.133-2.897 2.661-5.446 4.48-7.477 1.038-1.16 2.583-2.625 3.185-3.022.21-.138.857-.591 1.437-1.005 1.313-.938 5.102-2.83 5.668-2.83.126 0 .377-.102.558-.228.181-.125.591-.269.912-.319.321-.05 1.109-.171 1.75-.268 1.995-.302 3.437-.656 2.736-.671-.328-.008-.634.023-.678.068m4.192.095a62.1 62.1 0 0 0 2.25.421c.825.14 1.725.295 2 .344 1.11.2 4.763 1.745 6 2.539.367.235.854.528 1.083.651 3.924 2.113 9.991 10.479 10.002 13.791 0 .18.113.542.25.805.137.262.25.825.252 1.25.003.509.115.914.33 1.189.364.465.44.34.133-.219-.11-.201-.251-.739-.313-1.198-.062-.458-.19-1.058-.285-1.333-.095-.275-.303-.95-.463-1.5a18.123 18.123 0 0 0-.764-2.042c-.261-.573-.475-1.109-.475-1.191 0-.152-1.007-1.884-1.803-3.1-1.142-1.745-3.565-4.301-5.309-5.6-.808-.602-3.816-2.484-3.969-2.484-.039 0-.542-.216-1.12-.48-1.548-.709-2.935-1.186-3.447-1.186-.248 0-.523-.071-.61-.157-.149-.148-2.06-.455-3.742-.601l-.75-.065.75.166m22.146 27.017c-.118.214-.264.802-.325 1.306s-.191 1.142-.289 1.417c-.097.275-.304.95-.458 1.5-.155.55-.347 1.13-.428 1.289-.211.419-.179.53.087.309.128-.106.271-.434.318-.729.048-.295.25-1.061.449-1.702.199-.642.416-1.542.481-2 .066-.459.215-1.009.333-1.223.117-.214.176-.427.13-.473-.046-.045-.18.092-.298.306m-48.14-.006c-.003.149.108.366.248.482.177.147.222.372.151.75-.063.336-.007.721.147 1.019.137.264.291.742.344 1.062.053.321.256.995.451 1.499.196.504.438 1.198.539 1.542.101.344.243.625.315.625.073 0 .133.082.133.181 0 .159.419.933 1.557 2.877.169.289.451.68.625.869.175.19.318.404.318.478 0 .213 1.645 2.086 2.829 3.22 1.539 1.475 3.51 2.829 5.671 3.896.595.295 1.108.598 1.139.674.03.076.221.138.425.138.203 0 .44.068.527.152.087.083.421.225.742.315s.733.22.917.288l.333.124-.333-.268c-.184-.147-.466-.269-.628-.272-.387-.007-3.188-1.32-4.502-2.111-2.608-1.568-5.087-3.766-6.699-5.936-.425-.573-.863-1.157-.972-1.298-.538-.693-2.008-3.588-2.535-4.994-.155-.412-.349-.88-.431-1.039a1.614 1.614 0 0 1-.15-.629c0-.187-.139-.736-.309-1.22-.17-.484-.277-1.104-.237-1.377.05-.338-.036-.629-.268-.908-.261-.313-.343-.346-.347-.139m46.075 6.833c-1.306 2.963-4.905 7.581-6.994 8.974-.21.141-.936.63-1.613 1.089a27.315 27.315 0 0 1-2.728 1.564c-.823.403-1.695.834-1.938.959-.243.125-.581.229-.75.232-.169.003-.453.115-.631.25-.425.322-.344.31.742-.104.503-.191 1.094-.373 1.314-.404.22-.031.445-.127.5-.213.055-.086.513-.362 1.017-.613 4.217-2.099 7.513-5.125 9.879-9.069.754-1.257 1.635-3.063 1.577-3.234-.029-.088-.198.168-.375.569m-28.675 13.497c-.076.124.001.148.233.075.191-.061.691.006 1.11.148.42.143 1.073.259 1.452.259.396 0 .814.113.982.265.161.145.429.235.597.2.527-.112-.674-.63-1.48-.639a5.056 5.056 0 0 1-1.383-.247c-.801-.289-1.356-.311-1.511-.061m12.314-.004c-.1.1-.659.223-1.242.273-1.011.088-2.655.696-1.894.701.183.001.479-.108.657-.243.177-.135.606-.245.952-.245s.979-.118 1.406-.264c.428-.145.918-.227 1.089-.182.172.045.312.014.312-.069 0-.213-1.062-.189-1.28.029" fill="#bcd4ec"/><path d="M225.208 35.782c.161.041.423.041.584 0 .16-.042.029-.077-.292-.077s-.452.035-.292.077M202.053 58.5c0 .596.031.84.068.542a5.307 5.307 0 0 0 0-1.084c-.037-.298-.068-.054-.068.542m-.001 3.083c.001.55.032.755.069.456.037-.3.036-.75-.002-1-.038-.251-.068-.006-.067.544" fill="#bddcec"/><path d="M224.494 35.559c-.05.051-.387.11-.75.132-.735.043-1.907.458-1.327.469.183.004.921-.106 1.639-.243 1.529-.293 3.127-.319 4.527-.073a58.86 58.86 0 0 0 2.659.414c.362.05.751.167.866.262.114.095.38.147.591.116.641-.093-.448-.556-1.449-.616-.458-.027-.912-.114-1.008-.194-.096-.079-.321-.149-.5-.155-.179-.006-1.413-.054-2.742-.107s-2.457-.055-2.506-.005m-3.661.653c0 .086-.106.116-.236.066a.256.256 0 0 0-.328.149c-.106.277.481.343.648.073.056-.092.281-.167.5-.167.218 0 .435-.062.482-.139.048-.076-.173-.138-.49-.138-.316 0-.576.07-.576.156m-2.25.577c-.275.04-.627.186-.782.325-.155.139-.473.264-.708.278-.234.014-.426.072-.426.129 0 .129-1.036.573-1.209.519-.068-.022-.125.039-.125.137 0 .097-.075.13-.166.073-.092-.057-.167-.024-.167.073 0 .098-.058.158-.128.135-.071-.023-.31.128-.533.335a3.362 3.362 0 0 1-.955.575c-.303.109-.551.296-.551.415 0 .194-.204.286-.53.241-.062-.009-.301.207-.531.48-.229.273-.488.496-.574.496-.086 0-.499.329-.919.731-.419.401-.801.691-.849.643-.048-.048-.156.092-.24.311-.084.219-.386.605-.671.858-.286.253-.519.538-.519.635 0 .096-.075.129-.167.072-.091-.057-.166-.018-.166.085 0 .104-.094.293-.209.421-.486.542-.625.739-.625.884 0 .085-.187.278-.416.428-.259.169-.417.43-.417.684a.796.796 0 0 1-.333.62c-.184.115-.334.334-.334.488 0 .153-.087.308-.193.343-.107.036-.21.176-.23.311-.061.411-.689 1.484-.803 1.37-.059-.058-.107.041-.107.222 0 .18-.067.399-.149.486-.221.234-.403 1.241-.224 1.241.084 0 .253-.318.376-.708.123-.39.293-.8.378-.913.084-.112.377-.637.649-1.167 1.019-1.977 1.279-2.418 1.678-2.851.225-.244.637-.781.914-1.194.527-.782 3.391-3.699 3.75-3.818.113-.038.559-.338.99-.667 1.263-.963 1.677-1.241 2.471-1.664.413-.219.805-.481.873-.583.067-.102.123-.122.125-.046.001.076.255-.018.564-.208.308-.191.702-.35.875-.353.172-.003.459-.115.637-.25a1.35 1.35 0 0 1 .688-.244c.2 0 .458-.113.572-.25.114-.138.142-.239.062-.225-.08.013-.371.057-.646.097m15.584.226c1.374.529 1.706.669 2.208.932.253.131.619.27.815.307.196.038.495.195.666.35.171.155.31.213.308.13-.006-.383-.541-.74-1.221-.814-.169-.018-.356-.109-.417-.202-.167-.257-.797-.551-1.182-.551-.189 0-.344-.059-.344-.131 0-.072-.131-.144-.292-.16a21.94 21.94 0 0 1-.875-.121c-.46-.073-.39-.018.334.26m4.166 1.738c0 .14.169.321.375.4.207.08 1.08.645 1.94 1.256 1.103.783 1.617 1.059 1.742.934.124-.124.115-.176-.031-.176-.114 0-.409-.188-.656-.417-.247-.229-.538-.417-.647-.417-.108 0-.418-.221-.688-.491-.271-.27-.689-.541-.93-.602-.241-.06-.438-.158-.438-.218s-.15-.202-.333-.317c-.279-.174-.334-.166-.334.048m4 2.848c0 .056.587.675 1.304 1.375 1.418 1.386 2.411 2.566 3.035 3.607.219.367.495.766.613.887s.215.316.215.434c0 .117.225.523.5.903s.502.785.505.9c.003.115.19.585.415 1.043.226.458.411.955.412 1.105.001.149.125.561.275.916.151.355.293.859.316 1.119.022.261.124.557.225.658.102.102.188.489.191.86.006.698.645 2.322.655 1.667.003-.188-.066-.414-.154-.501-.088-.088-.208-.647-.267-1.242-.059-.595-.19-1.183-.291-1.307-.101-.124-.167-.442-.147-.708.02-.266-.039-.484-.132-.484s-.17-.15-.17-.333c0-.183-.066-.333-.148-.333-.139 0-.345-.878-.364-1.546-.004-.162-.075-.254-.156-.203-.188.116-.498-.452-.498-.91 0-.301-.694-1.601-.984-1.841-.156-.13-.488-.698-.755-1.292-.135-.298-.306-.542-.382-.542-.075 0-.278-.262-.451-.583-.173-.321-.377-.583-.455-.583-.077 0-.14-.103-.14-.229s-.257-.404-.571-.619c-.314-.216-.527-.469-.473-.564.054-.094.045-.125-.018-.069-.129.115-1.192-.894-1.45-1.376-.153-.285-.655-.445-.655-.209m-39.041 10.767c-.161.164-.281.355-.268.424.064.326-.25 1.525-.378 1.445-.08-.049-.14.196-.133.545l.014.635.315-.667c.174-.367.318-.876.32-1.131.003-.255.124-.647.27-.87.338-.516.243-.774-.14-.381m-.987 4.083c-.178.601-.226 1.056-.134 1.282.115.286.143.234.152-.281.006-.347.129-.811.274-1.032.165-.252.211-.495.123-.652-.101-.18-.217.011-.415.683m-.184 5.927c-.075.269-.055.6.047.792.134.249.125.331-.037.335-.127.003-.096.074.077.175.215.125.292.385.292.985 0 .448.075.862.167.918.091.057.166.272.166.478 0 .207.113.521.251.699.328.423.217-.418-.189-1.431-.157-.393-.22-.84-.155-1.099.071-.282.023-.532-.136-.708-.135-.15-.27-.572-.3-.939-.051-.63-.061-.641-.183-.205m48.502.933c-.159.27-.285.779-.279 1.131.011.645.283.339.394-.442.02-.138.094-.379.165-.536.237-.527.013-.649-.28-.153m-.616 2.564c-.094.39-.254.933-.354 1.208-.411 1.131-.413 1.176-.041.818.182-.175.293-.424.248-.553-.057-.161-.014-.193.135-.101.171.105.194.007.107-.457-.073-.388-.038-.668.102-.815.271-.286.363-.808.143-.808-.092 0-.245.318-.34.708m-46.941 1.555c.055.145.101.3.101.343 0 .044.075.034.166-.023.095-.058.167.081.167.322 0 .483.513 1.761.706 1.761.07 0 .127-.018.127-.041-.003-.127-.781-2.242-.89-2.417-.187-.302-.497-.256-.377.055m46.044 1.374c-.342.378-.37.888-.042.762.223-.085.521-.866.384-1.003-.036-.036-.19.073-.342.241m-.796 1.821a17.578 17.578 0 0 1-.807 1.458c-.233.367-.499.792-.59.945-1.614 2.692-5.07 6.096-7.634 7.518-.293.162-.515.366-.493.452.021.086-.06.118-.182.072-.122-.047-.317.031-.435.172-.118.142-.306.258-.418.258-.27 0-1.281.507-1.559.782-.182.181-.178.218.022.218.133 0 .327-.103.431-.229.105-.126.539-.327.965-.446.426-.12 1.006-.41 1.289-.646.637-.531 1.092-.826 1.472-.953.16-.054.292-.169.292-.255 0-.087.086-.104.192-.038.118.072.147.045.077-.069-.07-.113.047-.229.295-.291.226-.057.454-.214.506-.349.052-.135.17-.198.262-.141.092.057.168-.014.168-.156 0-.143.085-.26.19-.26s.399-.219.654-.485c.255-.267.513-.436.573-.375.061.06.086.035.055-.057-.03-.092.419-.635.997-1.207.578-.573 1.005-1.117.948-1.209-.057-.092.004-.167.136-.167s.327-.211.433-.468c.107-.256.374-.661.594-.898.22-.238.354-.477.299-.533-.056-.056-.014-.101.093-.101s.194-.107.194-.238c0-.13.188-.46.417-.732.229-.272.417-.62.417-.773 0-.167.076-.23.192-.158.115.071.147.046.081-.062-.062-.1-.036-.228.057-.286.093-.057.17-.25.17-.428s.075-.323.166-.323A.167.167 0 0 0 249 70c0-.407-.335-.101-.686.625m-44.023-.215c.045.233.147.423.228.423.081 0 .148.081.148.179 0 .098.109.288.243.421.133.134.195.366.138.516-.07.182-.04.232.09.152.114-.07.195-.023.195.113 0 .129.15.37.334.536.183.166.333.403.333.527 0 .125.146.351.325.504.178.153.286.341.239.417-.047.076.032.183.174.237.143.055.211.179.152.275-.061.098-.029.126.072.063.099-.061.227.036.285.216.057.18.662.899 1.345 1.598.683.698 1.241 1.339 1.241 1.425 0 .085.078.155.172.155.095 0 .402.262.684.582.281.321.568.548.637.506.069-.043.3.107.512.333.213.227.489.412.613.412s.269.112.322.25c.053.137.232.25.399.25.166 0 .533.231.815.513.282.282.513.465.513.407 0-.058.206 0 .458.129.252.128.759.376 1.125.549.367.174.704.354.75.4.046.047.196.085.334.085.137 0 .234.084.216.185-.019.102.131.184.333.181.54-.006 1.332.242 1.586.496.288.288.545.285.434-.006-.102-.264-.786-.606-1.212-.606-.161 0-.439-.11-.617-.244a1.375 1.375 0 0 0-.685-.25c-.198-.003-.386-.068-.416-.144-.031-.076-.544-.381-1.139-.676-3.165-1.572-5.34-3.267-7.634-5.949-.476-.557-.866-1.078-.866-1.158 0-.081-.231-.384-.512-.674-.281-.29-.53-.631-.552-.758-.022-.126-.278-.6-.57-1.052-.291-.451-.573-.959-.627-1.127-.053-.168-.158-.268-.233-.222-.074.046-.125-.038-.113-.188.013-.149-.061-.302-.163-.338-.119-.042-.157.088-.106.357m30.459 12.351c-.458.221-.969.402-1.135.404-.166.001-.258.071-.206.157.053.085-.149.154-.448.154-1.384-.001-3.682.617-3.261.878.113.07.309.041.436-.064.127-.106.457-.174.734-.153.276.021.587-.031.691-.114.15-.121 1.414-.373 2.153-.43.073-.005.186-.097.252-.205.066-.107.345-.244.619-.304.648-.143 1.248-.437 1.248-.612 0-.2-.152-.16-1.083.289m-14.656.722c-.118.19.298.35.91.35.262 0 .524.077.582.171.058.094.344.163.635.153.291-.01.698.034.904.099.232.072.375.046.375-.067 0-.206-.334-.293-1.706-.442-.525-.057-.999-.173-1.051-.259-.122-.197-.528-.201-.649-.005m4.948.974c.802.031 2.114.031 2.916 0 .802-.03.146-.055-1.458-.055-1.604 0-2.26.025-1.458.055" fill="#bfdcf4"/></g></svg>
